<svg width="232" height="71" viewBox="0 0 232 71" fill="none" xmlns="http://www.w3.org/2000/svg">
<path d="M33.5979 8.85411C34.1966 7.01149 36.8034 7.01148 37.4021 8.8541L42.3477 24.075C42.6154 24.899 43.3833 25.4569 44.2498 25.4569H60.254C62.1914 25.4569 62.997 27.9362 61.4295 29.075L48.4819 38.482C47.7809 38.9913 47.4876 39.894 47.7553 40.7181L52.7009 55.9389C53.2996 57.7816 51.1907 59.3138 49.6232 58.175L36.6756 48.768C35.9746 48.2587 35.0254 48.2587 34.3244 48.768L21.3768 58.175C19.8094 59.3138 17.7004 57.7816 18.2991 55.939L23.2447 40.7181C23.5124 39.894 23.2191 38.9913 22.5181 38.482L9.57046 29.075C8.00304 27.9362 8.80858 25.4569 10.746 25.4569H26.7502C27.6167 25.4569 28.3846 24.899 28.6523 24.075L33.5979 8.85411Z" fill="#fff"/>
<path d="M88.896 28.288V34.704H96.992V38.016H88.896V44.56H99.168V48H84.576V24.864H99.168V28.288H88.896ZM121.782 48H117.494C117.196 48 116.956 47.9253 116.774 47.776C116.604 47.6267 116.465 47.456 116.358 47.264L110.998 38.384C110.913 38.6507 110.812 38.88 110.694 39.072L105.558 47.264C105.43 47.4453 105.281 47.616 105.11 47.776C104.95 47.9253 104.737 48 104.47 48H100.454L108.134 36.096L100.758 24.864H105.046C105.345 24.864 105.558 24.9067 105.686 24.992C105.825 25.0667 105.953 25.1947 106.07 25.376L111.334 33.856C111.441 33.5893 111.569 33.3227 111.718 33.056L116.55 25.456C116.668 25.2533 116.796 25.104 116.934 25.008C117.073 24.912 117.249 24.864 117.462 24.864H121.574L114.134 35.92L121.782 48ZM136.675 39.264L133.859 31.568C133.72 31.2267 133.576 30.8213 133.427 30.352C133.278 29.8827 133.128 29.376 132.979 28.832C132.84 29.376 132.696 29.888 132.547 30.368C132.398 30.8373 132.254 31.248 132.115 31.6L129.315 39.264H136.675ZM144.275 48H140.947C140.574 48 140.27 47.9093 140.035 47.728C139.8 47.536 139.624 47.3013 139.507 47.024L137.779 42.304H128.195L126.467 47.024C126.382 47.2693 126.216 47.4933 125.971 47.696C125.726 47.8987 125.422 48 125.059 48H121.699L130.803 24.864H135.187L144.275 48ZM171.758 24.864V48H167.966V33.056C167.966 32.4587 167.998 31.8133 168.062 31.12L161.07 44.256C160.739 44.8853 160.232 45.2 159.55 45.2H158.942C158.259 45.2 157.752 44.8853 157.422 44.256L150.35 31.072C150.382 31.424 150.408 31.7707 150.43 32.112C150.451 32.4533 150.462 32.768 150.462 33.056V48H146.67V24.864H149.918C150.11 24.864 150.275 24.8693 150.414 24.88C150.552 24.8907 150.675 24.9173 150.782 24.96C150.899 25.0027 151 25.072 151.086 25.168C151.182 25.264 151.272 25.392 151.358 25.552L158.286 38.4C158.467 38.7413 158.632 39.0933 158.782 39.456C158.942 39.8187 159.096 40.192 159.246 40.576C159.395 40.1813 159.55 39.8027 159.71 39.44C159.87 39.0667 160.04 38.7093 160.222 38.368L167.054 25.552C167.139 25.392 167.23 25.264 167.326 25.168C167.422 25.072 167.523 25.0027 167.63 24.96C167.747 24.9173 167.875 24.8907 168.014 24.88C168.152 24.8693 168.318 24.864 168.51 24.864H171.758ZM184.44 36.496C185.229 36.496 185.917 36.4 186.504 36.208C187.09 36.0053 187.576 35.7227 187.96 35.36C188.354 34.9867 188.648 34.5387 188.84 34.016C189.032 33.4827 189.128 32.8907 189.128 32.24C189.128 31.6213 189.032 31.0613 188.84 30.56C188.648 30.0587 188.36 29.632 187.976 29.28C187.592 28.928 187.106 28.6613 186.52 28.48C185.933 28.288 185.24 28.192 184.44 28.192H181.224V36.496H184.44ZM184.44 24.864C185.986 24.864 187.325 25.0453 188.456 25.408C189.586 25.7707 190.52 26.2773 191.256 26.928C191.992 27.5787 192.536 28.3573 192.888 29.264C193.25 30.1707 193.432 31.1627 193.432 32.24C193.432 33.36 193.245 34.3893 192.872 35.328C192.498 36.256 191.938 37.056 191.192 37.728C190.445 38.4 189.506 38.9227 188.376 39.296C187.256 39.6693 185.944 39.856 184.44 39.856H181.224V48H176.92V24.864H184.44ZM210.284 44.448V48H196.732V24.864H201.036V44.448H210.284ZM217.677 28.288V34.704H225.773V38.016H217.677V44.56H227.949V48H213.357V24.864H227.949V28.288H217.677Z" fill="#fff"/>
</svg>
